<svg width="auto" height="auto" viewBox="0 0 282 39" fill="none" xmlns="http://www.w3.org/2000/svg">
<path fill-rule="evenodd" clip-rule="evenodd" d="M32.7743 4.75268C35.3976 0.208902 41.2077 -1.34791 45.7515 1.27544C50.2953 3.89879 51.8521 9.7089 49.2287 14.2527L40.9787 28.5421C38.2173 33.325 32.1014 34.9638 27.3185 32.2024L20.8938 28.4931L17.7287 33.9751C15.1054 38.5189 9.29527 40.0757 4.75149 37.4524C0.207714 34.829 -1.3491 29.0189 1.27425 24.4751L9.52425 10.1857C12.2857 5.40277 18.4016 3.76402 23.1845 6.52544L29.6092 10.2347L32.7743 4.75268ZM69.108 13.9631C69.625 14.3437 69.9176 14.8778 69.9858 15.5653H73.5227C73.5057 14.5256 73.2273 13.6108 72.6875 12.821C72.1477 12.0312 71.392 11.4148 70.4205 10.9716C69.4545 10.5284 68.3239 10.3068 67.0284 10.3068C65.7557 10.3068 64.6193 10.5284 63.6193 10.9716C62.6193 11.4148 61.8324 12.0312 61.2585 12.821C60.6903 13.6108 60.4091 14.5341 60.4148 15.5909C60.4091 16.8807 60.8324 17.9062 61.6847 18.6676C62.5369 19.429 63.6989 19.9886 65.1705 20.3466L67.071 20.8239C67.7074 20.9773 68.2443 21.1477 68.6818 21.3352C69.125 21.5227 69.4602 21.75 69.6875 22.017C69.9205 22.2841 70.0369 22.6136 70.0369 23.0057C70.0369 23.4261 69.9091 23.7983 69.6534 24.1222C69.3977 24.446 69.0369 24.6989 68.571 24.8807C68.1108 25.0625 67.5682 25.1534 66.9432 25.1534C66.3068 25.1534 65.7358 25.0568 65.2301 24.8636C64.7301 24.6648 64.3295 24.3722 64.0284 23.9858C63.733 23.5937 63.5653 23.1051 63.5256 22.5199H59.9545C59.983 23.7756 60.2869 24.8295 60.8665 25.6818C61.4517 26.5284 62.2642 27.1676 63.304 27.5994C64.3494 28.0312 65.5767 28.2472 66.9858 28.2472C68.4062 28.2472 69.6193 28.0341 70.625 27.608C71.6364 27.1761 72.4091 26.571 72.9432 25.7926C73.483 25.0085 73.7557 24.0824 73.7614 23.0142C73.7557 22.2869 73.6222 21.642 73.3608 21.0795C73.1051 20.517 72.7443 20.0284 72.2784 19.6136C71.8125 19.1989 71.2614 18.8494 70.625 18.5653C69.9886 18.2812 69.2898 18.054 68.5284 17.8835L66.9602 17.5085C66.5795 17.4233 66.2216 17.321 65.8864 17.2017C65.5511 17.0767 65.2557 16.9318 65 16.767C64.7443 16.5966 64.5426 16.3949 64.3949 16.1619C64.2528 15.929 64.1875 15.6562 64.1989 15.3437C64.1989 14.9687 64.3068 14.6335 64.5227 14.3381C64.7443 14.0426 65.0625 13.8125 65.4773 13.6477C65.892 13.4773 66.4006 13.392 67.0028 13.392C67.8892 13.392 68.5909 13.5824 69.108 13.9631ZM91.201 24.1307C91.9226 22.7955 92.2834 21.1761 92.2834 19.2727C92.2834 17.3693 91.9226 15.75 91.201 14.4148C90.4851 13.0795 89.5078 12.0625 88.2692 11.3636C87.0362 10.6591 85.6499 10.3068 84.1101 10.3068C82.559 10.3068 81.1669 10.6591 79.934 11.3636C78.701 12.0625 77.7266 13.0795 77.0107 14.4148C76.2947 15.75 75.9368 17.3693 75.9368 19.2727C75.9368 21.1705 76.2947 22.7869 77.0107 24.1222C77.7266 25.4574 78.701 26.4773 79.934 27.1818C81.1669 27.8864 82.559 28.2386 84.1101 28.2386C85.6499 28.2386 87.0362 27.8892 88.2692 27.1903C89.5078 26.4858 90.4851 25.4659 91.201 24.1307ZM87.9879 16.1534C88.3572 17 88.5419 18.0398 88.5419 19.2727C88.5419 20.5057 88.3572 21.5455 87.9879 22.392C87.6243 23.2386 87.1101 23.8807 86.4453 24.3182C85.7805 24.7557 85.0021 24.9744 84.1101 24.9744C83.218 24.9744 82.4396 24.7557 81.7749 24.3182C81.1101 23.8807 80.593 23.2386 80.2237 22.392C79.8601 21.5455 79.6783 20.5057 79.6783 19.2727C79.6783 18.0398 79.8601 17 80.2237 16.1534C80.593 15.3068 81.1101 14.6648 81.7749 14.2273C82.4396 13.7898 83.218 13.571 84.1101 13.571C85.0021 13.571 85.7805 13.7898 86.4453 14.2273C87.1101 14.6648 87.6243 15.3068 87.9879 16.1534ZM106.685 16.6562H110.418C110.298 15.6449 110.026 14.7472 109.599 13.9631C109.179 13.179 108.634 12.517 107.963 11.9773C107.293 11.4318 106.523 11.017 105.653 10.733C104.79 10.4489 103.852 10.3068 102.841 10.3068C101.307 10.3068 99.9261 10.6591 98.6989 11.3636C97.4716 12.0625 96.5 13.0795 95.7841 14.4148C95.0682 15.75 94.7102 17.3693 94.7102 19.2727C94.7102 21.1705 95.0625 22.7869 95.767 24.1222C96.4773 25.4574 97.4432 26.4773 98.6648 27.1818C99.892 27.8864 101.284 28.2386 102.841 28.2386C103.96 28.2386 104.963 28.071 105.849 27.7358C106.741 27.3949 107.509 26.9347 108.151 26.3551C108.798 25.7699 109.312 25.108 109.693 24.3693C110.08 23.625 110.321 22.8523 110.418 22.0511L106.685 22.0341C106.599 22.5 106.446 22.9148 106.224 23.2784C106.009 23.642 105.736 23.9517 105.406 24.2074C105.077 24.4574 104.699 24.6477 104.273 24.7784C103.852 24.9091 103.395 24.9744 102.901 24.9744C102.02 24.9744 101.244 24.7585 100.574 24.3267C99.9034 23.8949 99.3807 23.2557 99.0057 22.4091C98.6364 21.5625 98.4517 20.517 98.4517 19.2727C98.4517 18.0625 98.6364 17.0341 99.0057 16.1875C99.375 15.3352 99.8949 14.6875 100.565 14.2443C101.236 13.7955 102.023 13.571 102.926 13.571C103.426 13.571 103.889 13.642 104.315 13.7841C104.747 13.9261 105.128 14.1307 105.457 14.3977C105.787 14.6648 106.057 14.9886 106.267 15.3693C106.477 15.7443 106.616 16.1733 106.685 16.6562ZM113.064 28H116.754V10.5455H113.064V28ZM118.844 28H122.799L124.094 24.0199H130.396L131.688 28H135.643L129.626 10.5455H124.87L118.844 28ZM129.461 21.1392L127.316 14.5341H127.18L125.031 21.1392H129.461ZM141.434 10.5455H137.744V28H148.917V24.9574H141.434V10.5455ZM168.327 28H171.515V10.5455H167.842V21.5227H167.688L160.154 10.5455H156.915V28H160.606V17.0142H160.734L168.327 28ZM186.325 10.5455H174.564V28H186.359V24.9574H178.254V20.7898H185.72V17.7472H178.254V13.5881H186.325V10.5455ZM192.225 10.5455H188.194L193.188 28H196.785L200.1 16.5881H200.237L203.56 28H207.157L212.151 10.5455H208.12L205.231 22.6989H205.077L201.898 10.5455H198.447L195.259 22.6733H195.114L192.225 10.5455ZM222.553 13.9631C223.07 14.3437 223.363 14.8778 223.431 15.5653H226.968C226.951 14.5256 226.673 13.6108 226.133 12.821C225.593 12.0312 224.837 11.4148 223.866 10.9716C222.9 10.5284 221.769 10.3068 220.474 10.3068C219.201 10.3068 218.065 10.5284 217.065 10.9716C216.065 11.4148 215.278 12.0312 214.704 12.821C214.136 13.6108 213.854 14.5341 213.86 15.5909C213.854 16.8807 214.278 17.9062 215.13 18.6676C215.982 19.429 217.144 19.9886 218.616 20.3466L220.516 20.8239C221.153 20.9773 221.69 21.1477 222.127 21.3352C222.57 21.5227 222.906 21.75 223.133 22.017C223.366 22.2841 223.482 22.6136 223.482 23.0057C223.482 23.4261 223.354 23.7983 223.099 24.1222C222.843 24.446 222.482 24.6989 222.016 24.8807C221.556 25.0625 221.013 25.1534 220.388 25.1534C219.752 25.1534 219.181 25.0568 218.675 24.8636C218.175 24.6648 217.775 24.3722 217.474 23.9858C217.178 23.5937 217.011 23.1051 216.971 22.5199H213.4C213.428 23.7756 213.732 24.8295 214.312 25.6818C214.897 26.5284 215.71 27.1676 216.749 27.5994C217.795 28.0312 219.022 28.2472 220.431 28.2472C221.852 28.2472 223.065 28.0341 224.07 27.608C225.082 27.1761 225.854 26.571 226.388 25.7926C226.928 25.0085 227.201 24.0824 227.207 23.0142C227.201 22.2869 227.067 21.642 226.806 21.0795C226.55 20.517 226.19 20.0284 225.724 19.6136C225.258 19.1989 224.707 18.8494 224.07 18.5653C223.434 18.2812 222.735 18.054 221.974 17.8835L220.406 17.5085C220.025 17.4233 219.667 17.321 219.332 17.2017C218.996 17.0767 218.701 16.9318 218.445 16.767C218.19 16.5966 217.988 16.3949 217.84 16.1619C217.698 15.929 217.633 15.6562 217.644 15.3437C217.644 14.9687 217.752 14.6335 217.968 14.3381C218.19 14.0426 218.508 13.8125 218.923 13.6477C219.337 13.4773 219.846 13.392 220.448 13.392C221.335 13.392 222.036 13.5824 222.553 13.9631ZM234.298 28H238.252L239.547 24.0199H245.849L247.141 28H251.096L245.079 10.5455H240.323L234.298 28ZM244.914 21.1392L242.769 14.5341H242.633L240.484 21.1392H244.914ZM260.083 10.5455H253.197V28H256.887V22.3409H259.989C261.33 22.3409 262.472 22.0937 263.415 21.5994C264.364 21.1051 265.089 20.4148 265.589 19.5284C266.089 18.642 266.339 17.6193 266.339 16.4602C266.339 15.3011 266.092 14.2784 265.597 13.392C265.109 12.5 264.398 11.804 263.467 11.304C262.535 10.7983 261.407 10.5455 260.083 10.5455ZM256.887 19.3835H259.393C260.103 19.3835 260.688 19.2614 261.148 19.017C261.614 18.767 261.961 18.4233 262.188 17.9858C262.421 17.5426 262.538 17.0341 262.538 16.4602C262.538 15.8807 262.421 15.375 262.188 14.9432C261.961 14.5057 261.614 14.1676 261.148 13.929C260.683 13.6847 260.092 13.5625 259.376 13.5625H256.887V19.3835ZM275.622 10.5455H268.736V28H272.426V22.3409H275.528C276.869 22.3409 278.011 22.0937 278.955 21.5994C279.903 21.1051 280.628 20.4148 281.128 19.5284C281.628 18.642 281.878 17.6193 281.878 16.4602C281.878 15.3011 281.631 14.2784 281.136 13.392C280.648 12.5 279.938 11.804 279.006 11.304C278.074 10.7983 276.946 10.5455 275.622 10.5455ZM272.426 19.3835H274.932C275.642 19.3835 276.227 19.2614 276.688 19.017C277.153 18.767 277.5 18.4233 277.727 17.9858C277.96 17.5426 278.077 17.0341 278.077 16.4602C278.077 15.8807 277.96 15.375 277.727 14.9432C277.5 14.5057 277.153 14.1676 276.688 13.929C276.222 13.6847 275.631 13.5625 274.915 13.5625H272.426V19.3835Z" fill="url(#paint0_linear_113_17)"/>
<defs>
<linearGradient id="paint0_linear_113_17" x1="198.846" y1="68" x2="198.846" y2="-74.5" gradientUnits="userSpaceOnUse">
<stop offset="0.183969" stop-color="#2980B9"/>
<stop offset="1" stop-color="#2980B9" stop-opacity="0"/>
</linearGradient>
</defs>
</svg>
