<svg width="auto" height="auto" viewBox="0 0 52 52" fill="none" xmlns="http://www.w3.org/2000/svg">
<g filter="url(#filter0_b_104_16)">
<mask id="path-1-inside-1_104_16" fill="white">
<path fill-rule="evenodd" clip-rule="evenodd" d="M46.2272 1.74999C41.6834 -0.873359 35.8733 0.683455 33.25 5.22723L30.0849 10.7093L23.6602 6.99999C18.8773 4.23857 12.7614 5.87732 9.99999 10.6602L1.74999 24.9497C-0.873363 29.4934 0.683451 35.3036 5.22723 37.9269C9.77101 40.5503 15.5811 38.9934 18.2045 34.4497L21.3695 28.9676L27.7942 32.6769C32.5771 35.4383 38.693 33.7996 41.4545 29.0167L49.7045 14.7272C52.3278 10.1835 50.771 4.37335 46.2272 1.74999Z"/>
</mask>
<path fill-rule="evenodd" clip-rule="evenodd" d="M46.2272 1.74999C41.6834 -0.873359 35.8733 0.683455 33.25 5.22723L30.0849 10.7093L23.6602 6.99999C18.8773 4.23857 12.7614 5.87732 9.99999 10.6602L1.74999 24.9497C-0.873363 29.4934 0.683451 35.3036 5.22723 37.9269C9.77101 40.5503 15.5811 38.9934 18.2045 34.4497L21.3695 28.9676L27.7942 32.6769C32.5771 35.4383 38.693 33.7996 41.4545 29.0167L49.7045 14.7272C52.3278 10.1835 50.771 4.37335 46.2272 1.74999Z" fill="url(#paint0_linear_104_16)"/>
<path d="M33.25 5.22723L33.683 5.47723L33.25 5.22723ZM30.0849 10.7093L29.8349 11.1423L30.2679 11.3923L30.5179 10.9593L30.0849 10.7093ZM23.6602 6.99999L23.9102 6.56698L23.6602 6.99999ZM9.99999 10.6602L10.433 10.9102L9.99999 10.6602ZM1.74999 24.9497L1.31698 24.6997L1.74999 24.9497ZM5.22723 37.9269L4.97723 38.3599L5.22723 37.9269ZM18.2045 34.4497L17.7715 34.1997L18.2045 34.4497ZM21.3695 28.9676L21.6195 28.5346L21.1865 28.2846L20.9365 28.7176L21.3695 28.9676ZM27.7942 32.6769L27.5442 33.1099L27.7942 32.6769ZM41.4545 29.0167L41.8875 29.2667L41.4545 29.0167ZM49.7045 14.7272L50.1375 14.9772L49.7045 14.7272ZM33.683 5.47723C36.1683 1.1726 41.6726 -0.302276 45.9772 2.18301L46.4772 1.31698C41.6943 -1.44444 35.5784 0.194308 32.817 4.97723L33.683 5.47723ZM30.5179 10.9593L33.683 5.47723L32.817 4.97723L29.6519 10.4593L30.5179 10.9593ZM23.4102 7.43301L29.8349 11.1423L30.3349 10.2763L23.9102 6.56698L23.4102 7.43301ZM10.433 10.9102C13.0564 6.36647 18.8665 4.80965 23.4102 7.43301L23.9102 6.56698C18.8882 3.66749 12.4665 5.38818 9.56698 10.4102L10.433 10.9102ZM2.183 25.1997L10.433 10.9102L9.56698 10.4102L1.31698 24.6997L2.183 25.1997ZM5.47723 37.4939C1.1726 35.0086 -0.302279 29.5043 2.183 25.1997L1.31698 24.6997C-1.44445 29.4826 0.194305 35.5985 4.97723 38.3599L5.47723 37.4939ZM17.7715 34.1997C15.2862 38.5043 9.78186 39.9792 5.47723 37.4939L4.97723 38.3599C9.76016 41.1213 15.8761 39.4826 18.6375 34.6997L17.7715 34.1997ZM20.9365 28.7176L17.7715 34.1997L18.6375 34.6997L21.8025 29.2176L20.9365 28.7176ZM28.0442 32.2439L21.6195 28.5346L21.1195 29.4006L27.5442 33.1099L28.0442 32.2439ZM41.0215 28.7667C38.3981 33.3104 32.588 34.8672 28.0442 32.2439L27.5442 33.1099C32.5663 36.0094 38.988 34.2887 41.8875 29.2667L41.0215 28.7667ZM49.2715 14.4772L41.0215 28.7667L41.8875 29.2667L50.1375 14.9772L49.2715 14.4772ZM45.9772 2.18301C50.2819 4.66829 51.7567 10.1726 49.2715 14.4772L50.1375 14.9772C52.8989 10.1943 51.2602 4.0784 46.4772 1.31698L45.9772 2.18301Z" fill="#97BFD9" mask="url(#path-1-inside-1_104_16)"/>
</g>
<defs>
<filter id="filter0_b_104_16" x="-3.52436" y="-3.52435" width="58.5032" height="46.7256" filterUnits="userSpaceOnUse" color-interpolation-filters="sRGB">
<feFlood flood-opacity="0" result="BackgroundImageFix"/>
<feGaussianBlur in="BackgroundImageFix" stdDeviation="2"/>
<feComposite in2="SourceAlpha" operator="in" result="effect1_backgroundBlur_104_16"/>
<feBlend mode="normal" in="SourceGraphic" in2="effect1_backgroundBlur_104_16" result="shape"/>
</filter>
<linearGradient id="paint0_linear_104_16" x1="-6.5" y1="35.5" x2="163" y2="-45.5" gradientUnits="userSpaceOnUse">
<stop stop-color="#2980B9"/>
<stop offset="1" stop-color="#2980B9" stop-opacity="0"/>
</linearGradient>
</defs>
</svg>
