<svg width="auto" height="auto" viewBox="0 0 277 41" fill="none" xmlns="http://www.w3.org/2000/svg">
<mask id="path-1-outside-1_113_14" maskUnits="userSpaceOnUse" x="0" y="0" width="277" height="41" fill="black">
<rect fill="white" width="277" height="41"/>
<path fill-rule="evenodd" clip-rule="evenodd" d="M33.7743 5.75159C36.3977 1.20781 42.2078 -0.349008 46.7516 2.27434C51.2954 4.8977 52.8522 10.7078 50.2288 15.2516L41.9788 29.541C39.2174 34.3239 33.1015 35.9627 28.3186 33.2013L21.8939 29.492L18.7288 34.974C16.1055 39.5178 10.2954 41.0746 5.75159 38.4513C1.20781 35.8279 -0.349008 30.0178 2.27434 25.474L10.5243 11.1846C13.2858 6.40167 19.4017 4.76292 24.1846 7.52435L30.6093 11.2336L33.7743 5.75159ZM69.9179 13.8977C70.6452 14.375 71.06 15.0455 71.1622 15.9091H73.2077C73.1793 15.0284 72.9066 14.2415 72.3895 13.5483C71.8782 12.8551 71.185 12.3097 70.31 11.9119C69.435 11.5085 68.435 11.3068 67.31 11.3068C66.1963 11.3068 65.1878 11.5114 64.2844 11.9205C63.3867 12.3239 62.6708 12.892 62.1367 13.625C61.6083 14.3523 61.3441 15.2045 61.3441 16.1818C61.3441 17.358 61.7418 18.3097 62.5373 19.0369C63.3327 19.7642 64.4123 20.3239 65.7759 20.7159L67.9236 21.3295C68.5372 21.5 69.1083 21.6989 69.6367 21.9261C70.1651 22.1534 70.5912 22.4489 70.9151 22.8125C71.239 23.1761 71.4009 23.6477 71.4009 24.2273C71.4009 24.8636 71.2134 25.4205 70.8384 25.8977C70.4634 26.3693 69.9549 26.7386 69.3128 27.0057C68.6708 27.267 67.9463 27.3977 67.1395 27.3977C66.4463 27.3977 65.7986 27.2955 65.1963 27.0909C64.5998 26.8807 64.1054 26.5625 63.7134 26.1364C63.327 25.7045 63.1054 25.1591 63.0486 24.5H60.8668C60.935 25.4545 61.2276 26.2926 61.7446 27.0142C62.2674 27.7358 62.9833 28.2983 63.8924 28.7017C64.8071 29.1051 65.8895 29.3068 67.1395 29.3068C68.4804 29.3068 69.6196 29.0824 70.5571 28.6335C71.5003 28.1847 72.2162 27.5795 72.7049 26.8182C73.1992 26.0568 73.4463 25.2045 73.4463 24.2614C73.4463 23.4432 73.2787 22.7528 72.9435 22.1903C72.6083 21.6278 72.1821 21.1676 71.6651 20.8097C71.1537 20.446 70.6168 20.1591 70.0543 19.9489C69.4975 19.7386 68.9918 19.5739 68.5372 19.4545L66.7645 18.9773C66.4407 18.892 66.0855 18.7813 65.6992 18.6449C65.3128 18.5028 64.9435 18.3239 64.5912 18.108C64.239 17.8864 63.9492 17.6108 63.7219 17.2813C63.5003 16.946 63.3895 16.5455 63.3895 16.0795C63.3895 15.5227 63.5486 15.0256 63.8668 14.5881C64.1907 14.1506 64.6395 13.8068 65.2134 13.5568C65.7929 13.3068 66.4691 13.1818 67.2418 13.1818C68.2986 13.1818 69.1907 13.4205 69.9179 13.8977ZM90.6516 25.0455C91.3164 23.7045 91.6488 22.1136 91.6488 20.2727C91.6488 18.4318 91.3164 16.8409 90.6516 15.5C89.9868 14.1591 89.0749 13.125 87.9158 12.3977C86.7567 11.6705 85.4328 11.3068 83.9442 11.3068C82.4556 11.3068 81.1317 11.6705 79.9726 12.3977C78.8135 13.125 77.9016 14.1591 77.2368 15.5C76.5721 16.8409 76.2397 18.4318 76.2397 20.2727C76.2397 22.1136 76.5721 23.7045 77.2368 25.0455C77.9016 26.3864 78.8135 27.4205 79.9726 28.1477C81.1317 28.875 82.4556 29.2386 83.9442 29.2386C85.4328 29.2386 86.7567 28.875 87.9158 28.1477C89.0749 27.4205 89.9868 26.3864 90.6516 25.0455ZM88.8448 16.446C89.3505 17.4858 89.6033 18.7614 89.6033 20.2727C89.6033 21.7841 89.3505 23.0597 88.8448 24.0994C88.3448 25.1392 87.6658 25.9261 86.8078 26.4602C85.9556 26.9943 85.001 27.2614 83.9442 27.2614C82.8874 27.2614 81.93 26.9943 81.0721 26.4602C80.2198 25.9261 79.5408 25.1392 79.0351 24.0994C78.5351 23.0597 78.2851 21.7841 78.2851 20.2727C78.2851 18.7614 78.5351 17.4858 79.0351 16.446C79.5408 15.4063 80.2198 14.6193 81.0721 14.0852C81.93 13.5511 82.8874 13.2841 83.9442 13.2841C85.001 13.2841 85.9556 13.5511 86.8078 14.0852C87.6658 14.6193 88.3448 15.4063 88.8448 16.446ZM107.135 17H109.248C109.089 16.1023 108.799 15.304 108.379 14.6051C107.958 13.9006 107.436 13.304 106.811 12.8153C106.186 12.321 105.484 11.946 104.706 11.6903C103.933 11.4347 103.106 11.3068 102.225 11.3068C100.737 11.3068 99.413 11.6705 98.2539 12.3977C97.0948 13.125 96.1828 14.1591 95.5181 15.5C94.8533 16.8409 94.5209 18.4318 94.5209 20.2727C94.5209 22.1136 94.8533 23.7045 95.5181 25.0455C96.1828 26.3864 97.0948 27.4205 98.2539 28.1477C99.413 28.875 100.737 29.2386 102.225 29.2386C103.106 29.2386 103.933 29.1108 104.706 28.8551C105.484 28.5994 106.186 28.2273 106.811 27.7386C107.436 27.2443 107.958 26.6449 108.379 25.9403C108.799 25.2358 109.089 24.4375 109.248 23.5455H107.135C107.01 24.1477 106.791 24.6818 106.478 25.1477C106.171 25.608 105.796 25.9972 105.353 26.3153C104.916 26.6278 104.43 26.8636 103.896 27.0227C103.362 27.1818 102.805 27.2614 102.225 27.2614C101.169 27.2614 100.211 26.9943 99.3533 26.4602C98.501 25.9261 97.8221 25.1392 97.3164 24.0994C96.8164 23.0597 96.5664 21.7841 96.5664 20.2727C96.5664 18.7614 96.8164 17.4858 97.3164 16.446C97.8221 15.4063 98.501 14.6193 99.3533 14.0852C100.211 13.5511 101.169 13.2841 102.225 13.2841C102.805 13.2841 103.362 13.3636 103.896 13.5227C104.43 13.6818 104.916 13.9205 105.353 14.2386C105.796 14.5511 106.171 14.9375 106.478 15.3977C106.791 15.858 107.01 16.392 107.135 17ZM112.664 29H114.777V11.5455H112.664V29ZM117.515 29H119.731L121.486 24.0568H128.545L130.299 29H132.515L126.106 11.5455H123.924L117.515 29ZM127.879 22.1818L125.083 14.3068H124.947L122.152 22.1818H127.879ZM137.348 11.5455H135.234V29H145.461V27.125H137.348V11.5455ZM167.279 29H169.325V11.5455H167.245V25.2841H167.075L157.529 11.5455H155.484V29H157.598V15.2955H157.768L167.279 29ZM184.088 11.5455H173.554V29H184.225V27.125H175.668V21.1932H183.543V19.3182H175.668V13.4205H184.088V11.5455ZM188.443 11.5455H186.296L191.068 29H193.25L197.103 15.0909H197.239L201.091 29H203.273L208.046 11.5455H205.898L202.25 25.7614H202.08L198.364 11.5455H195.978L192.262 25.7614H192.091L188.443 11.5455ZM218.98 13.8977C219.708 14.375 220.122 15.0455 220.225 15.9091H222.27C222.242 15.0284 221.969 14.2415 221.452 13.5483C220.941 12.8551 220.247 12.3097 219.372 11.9119C218.497 11.5085 217.497 11.3068 216.372 11.3068C215.259 11.3068 214.25 11.5114 213.347 11.9205C212.449 12.3239 211.733 12.892 211.199 13.625C210.671 14.3523 210.407 15.2045 210.407 16.1818C210.407 17.358 210.804 18.3097 211.6 19.0369C212.395 19.7642 213.475 20.3239 214.838 20.7159L216.986 21.3295C217.6 21.5 218.171 21.6989 218.699 21.9261C219.228 22.1534 219.654 22.4489 219.978 22.8125C220.301 23.1761 220.463 23.6477 220.463 24.2273C220.463 24.8636 220.276 25.4205 219.901 25.8977C219.526 26.3693 219.017 26.7386 218.375 27.0057C217.733 27.267 217.009 27.3977 216.202 27.3977C215.509 27.3977 214.861 27.2955 214.259 27.0909C213.662 26.8807 213.168 26.5625 212.776 26.1364C212.39 25.7045 212.168 25.1591 212.111 24.5H209.929C209.997 25.4545 210.29 26.2926 210.807 27.0142C211.33 27.7358 212.046 28.2983 212.955 28.7017C213.87 29.1051 214.952 29.3068 216.202 29.3068C217.543 29.3068 218.682 29.0824 219.62 28.6335C220.563 28.1847 221.279 27.5795 221.767 26.8182C222.262 26.0568 222.509 25.2045 222.509 24.2614C222.509 23.4432 222.341 22.7528 222.006 22.1903C221.671 21.6278 221.245 21.1676 220.728 20.8097C220.216 20.446 219.679 20.1591 219.117 19.9489C218.56 19.7386 218.054 19.5739 217.6 19.4545L215.827 18.9773C215.503 18.892 215.148 18.7813 214.762 18.6449C214.375 18.5028 214.006 18.3239 213.654 18.108C213.301 17.8864 213.012 17.6108 212.784 17.2813C212.563 16.946 212.452 16.5455 212.452 16.0795C212.452 15.5227 212.611 15.0256 212.929 14.5881C213.253 14.1506 213.702 13.8068 214.276 13.5568C214.855 13.3068 215.532 13.1818 216.304 13.1818C217.361 13.1818 218.253 13.4205 218.98 13.8977ZM231.234 29H233.45L235.205 24.0568H242.263L244.018 29H246.234L239.825 11.5455H237.643L231.234 29ZM241.598 22.1818L238.802 14.3068H238.666L235.87 22.1818H241.598ZM254.85 11.5455H248.953V29H251.066V22.625H254.885C256.243 22.625 257.356 22.3778 258.225 21.8835C259.095 21.3835 259.737 20.7131 260.152 19.8722C260.572 19.0313 260.782 18.0966 260.782 17.0682C260.782 16.0398 260.572 15.108 260.152 14.2727C259.731 13.4375 259.083 12.7756 258.208 12.2869C257.339 11.7926 256.22 11.5455 254.85 11.5455ZM251.066 20.75H254.816C255.754 20.75 256.507 20.5881 257.075 20.2642C257.643 19.9403 258.055 19.5028 258.311 18.9517C258.572 18.3949 258.703 17.767 258.703 17.0682C258.703 16.3693 258.572 15.7443 258.311 15.1932C258.055 14.642 257.64 14.2102 257.066 13.8977C256.493 13.5795 255.731 13.4205 254.782 13.4205H251.066V20.75ZM270.085 11.5455H264.187V29H266.301V22.625H270.119C271.477 22.625 272.591 22.3778 273.46 21.8835C274.329 21.3835 274.971 20.7131 275.386 19.8722C275.806 19.0313 276.017 18.0966 276.017 17.0682C276.017 16.0398 275.806 15.108 275.386 14.2727C274.966 13.4375 274.318 12.7756 273.443 12.2869C272.573 11.7926 271.454 11.5455 270.085 11.5455ZM266.301 20.75H270.051C270.988 20.75 271.741 20.5881 272.309 20.2642C272.877 19.9403 273.289 19.5028 273.545 18.9517C273.806 18.3949 273.937 17.767 273.937 17.0682C273.937 16.3693 273.806 15.7443 273.545 15.1932C273.289 14.642 272.875 14.2102 272.301 13.8977C271.727 13.5795 270.966 13.4205 270.017 13.4205H266.301V20.75Z"/>
</mask>
<path fill-rule="evenodd" clip-rule="evenodd" d="M33.7743 5.75159C36.3977 1.20781 42.2078 -0.349008 46.7516 2.27434C51.2954 4.8977 52.8522 10.7078 50.2288 15.2516L41.9788 29.541C39.2174 34.3239 33.1015 35.9627 28.3186 33.2013L21.8939 29.492L18.7288 34.974C16.1055 39.5178 10.2954 41.0746 5.75159 38.4513C1.20781 35.8279 -0.349008 30.0178 2.27434 25.474L10.5243 11.1846C13.2858 6.40167 19.4017 4.76292 24.1846 7.52435L30.6093 11.2336L33.7743 5.75159ZM69.9179 13.8977C70.6452 14.375 71.06 15.0455 71.1622 15.9091H73.2077C73.1793 15.0284 72.9066 14.2415 72.3895 13.5483C71.8782 12.8551 71.185 12.3097 70.31 11.9119C69.435 11.5085 68.435 11.3068 67.31 11.3068C66.1963 11.3068 65.1878 11.5114 64.2844 11.9205C63.3867 12.3239 62.6708 12.892 62.1367 13.625C61.6083 14.3523 61.3441 15.2045 61.3441 16.1818C61.3441 17.358 61.7418 18.3097 62.5373 19.0369C63.3327 19.7642 64.4123 20.3239 65.7759 20.7159L67.9236 21.3295C68.5372 21.5 69.1083 21.6989 69.6367 21.9261C70.1651 22.1534 70.5912 22.4489 70.9151 22.8125C71.239 23.1761 71.4009 23.6477 71.4009 24.2273C71.4009 24.8636 71.2134 25.4205 70.8384 25.8977C70.4634 26.3693 69.9549 26.7386 69.3128 27.0057C68.6708 27.267 67.9463 27.3977 67.1395 27.3977C66.4463 27.3977 65.7986 27.2955 65.1963 27.0909C64.5998 26.8807 64.1054 26.5625 63.7134 26.1364C63.327 25.7045 63.1054 25.1591 63.0486 24.5H60.8668C60.935 25.4545 61.2276 26.2926 61.7446 27.0142C62.2674 27.7358 62.9833 28.2983 63.8924 28.7017C64.8071 29.1051 65.8895 29.3068 67.1395 29.3068C68.4804 29.3068 69.6196 29.0824 70.5571 28.6335C71.5003 28.1847 72.2162 27.5795 72.7049 26.8182C73.1992 26.0568 73.4463 25.2045 73.4463 24.2614C73.4463 23.4432 73.2787 22.7528 72.9435 22.1903C72.6083 21.6278 72.1821 21.1676 71.6651 20.8097C71.1537 20.446 70.6168 20.1591 70.0543 19.9489C69.4975 19.7386 68.9918 19.5739 68.5372 19.4545L66.7645 18.9773C66.4407 18.892 66.0855 18.7813 65.6992 18.6449C65.3128 18.5028 64.9435 18.3239 64.5912 18.108C64.239 17.8864 63.9492 17.6108 63.7219 17.2813C63.5003 16.946 63.3895 16.5455 63.3895 16.0795C63.3895 15.5227 63.5486 15.0256 63.8668 14.5881C64.1907 14.1506 64.6395 13.8068 65.2134 13.5568C65.7929 13.3068 66.4691 13.1818 67.2418 13.1818C68.2986 13.1818 69.1907 13.4205 69.9179 13.8977ZM90.6516 25.0455C91.3164 23.7045 91.6488 22.1136 91.6488 20.2727C91.6488 18.4318 91.3164 16.8409 90.6516 15.5C89.9868 14.1591 89.0749 13.125 87.9158 12.3977C86.7567 11.6705 85.4328 11.3068 83.9442 11.3068C82.4556 11.3068 81.1317 11.6705 79.9726 12.3977C78.8135 13.125 77.9016 14.1591 77.2368 15.5C76.5721 16.8409 76.2397 18.4318 76.2397 20.2727C76.2397 22.1136 76.5721 23.7045 77.2368 25.0455C77.9016 26.3864 78.8135 27.4205 79.9726 28.1477C81.1317 28.875 82.4556 29.2386 83.9442 29.2386C85.4328 29.2386 86.7567 28.875 87.9158 28.1477C89.0749 27.4205 89.9868 26.3864 90.6516 25.0455ZM88.8448 16.446C89.3505 17.4858 89.6033 18.7614 89.6033 20.2727C89.6033 21.7841 89.3505 23.0597 88.8448 24.0994C88.3448 25.1392 87.6658 25.9261 86.8078 26.4602C85.9556 26.9943 85.001 27.2614 83.9442 27.2614C82.8874 27.2614 81.93 26.9943 81.0721 26.4602C80.2198 25.9261 79.5408 25.1392 79.0351 24.0994C78.5351 23.0597 78.2851 21.7841 78.2851 20.2727C78.2851 18.7614 78.5351 17.4858 79.0351 16.446C79.5408 15.4063 80.2198 14.6193 81.0721 14.0852C81.93 13.5511 82.8874 13.2841 83.9442 13.2841C85.001 13.2841 85.9556 13.5511 86.8078 14.0852C87.6658 14.6193 88.3448 15.4063 88.8448 16.446ZM107.135 17H109.248C109.089 16.1023 108.799 15.304 108.379 14.6051C107.958 13.9006 107.436 13.304 106.811 12.8153C106.186 12.321 105.484 11.946 104.706 11.6903C103.933 11.4347 103.106 11.3068 102.225 11.3068C100.737 11.3068 99.413 11.6705 98.2539 12.3977C97.0948 13.125 96.1828 14.1591 95.5181 15.5C94.8533 16.8409 94.5209 18.4318 94.5209 20.2727C94.5209 22.1136 94.8533 23.7045 95.5181 25.0455C96.1828 26.3864 97.0948 27.4205 98.2539 28.1477C99.413 28.875 100.737 29.2386 102.225 29.2386C103.106 29.2386 103.933 29.1108 104.706 28.8551C105.484 28.5994 106.186 28.2273 106.811 27.7386C107.436 27.2443 107.958 26.6449 108.379 25.9403C108.799 25.2358 109.089 24.4375 109.248 23.5455H107.135C107.01 24.1477 106.791 24.6818 106.478 25.1477C106.171 25.608 105.796 25.9972 105.353 26.3153C104.916 26.6278 104.43 26.8636 103.896 27.0227C103.362 27.1818 102.805 27.2614 102.225 27.2614C101.169 27.2614 100.211 26.9943 99.3533 26.4602C98.501 25.9261 97.8221 25.1392 97.3164 24.0994C96.8164 23.0597 96.5664 21.7841 96.5664 20.2727C96.5664 18.7614 96.8164 17.4858 97.3164 16.446C97.8221 15.4063 98.501 14.6193 99.3533 14.0852C100.211 13.5511 101.169 13.2841 102.225 13.2841C102.805 13.2841 103.362 13.3636 103.896 13.5227C104.43 13.6818 104.916 13.9205 105.353 14.2386C105.796 14.5511 106.171 14.9375 106.478 15.3977C106.791 15.858 107.01 16.392 107.135 17ZM112.664 29H114.777V11.5455H112.664V29ZM117.515 29H119.731L121.486 24.0568H128.545L130.299 29H132.515L126.106 11.5455H123.924L117.515 29ZM127.879 22.1818L125.083 14.3068H124.947L122.152 22.1818H127.879ZM137.348 11.5455H135.234V29H145.461V27.125H137.348V11.5455ZM167.279 29H169.325V11.5455H167.245V25.2841H167.075L157.529 11.5455H155.484V29H157.598V15.2955H157.768L167.279 29ZM184.088 11.5455H173.554V29H184.225V27.125H175.668V21.1932H183.543V19.3182H175.668V13.4205H184.088V11.5455ZM188.443 11.5455H186.296L191.068 29H193.25L197.103 15.0909H197.239L201.091 29H203.273L208.046 11.5455H205.898L202.25 25.7614H202.08L198.364 11.5455H195.978L192.262 25.7614H192.091L188.443 11.5455ZM218.98 13.8977C219.708 14.375 220.122 15.0455 220.225 15.9091H222.27C222.242 15.0284 221.969 14.2415 221.452 13.5483C220.941 12.8551 220.247 12.3097 219.372 11.9119C218.497 11.5085 217.497 11.3068 216.372 11.3068C215.259 11.3068 214.25 11.5114 213.347 11.9205C212.449 12.3239 211.733 12.892 211.199 13.625C210.671 14.3523 210.407 15.2045 210.407 16.1818C210.407 17.358 210.804 18.3097 211.6 19.0369C212.395 19.7642 213.475 20.3239 214.838 20.7159L216.986 21.3295C217.6 21.5 218.171 21.6989 218.699 21.9261C219.228 22.1534 219.654 22.4489 219.978 22.8125C220.301 23.1761 220.463 23.6477 220.463 24.2273C220.463 24.8636 220.276 25.4205 219.901 25.8977C219.526 26.3693 219.017 26.7386 218.375 27.0057C217.733 27.267 217.009 27.3977 216.202 27.3977C215.509 27.3977 214.861 27.2955 214.259 27.0909C213.662 26.8807 213.168 26.5625 212.776 26.1364C212.39 25.7045 212.168 25.1591 212.111 24.5H209.929C209.997 25.4545 210.29 26.2926 210.807 27.0142C211.33 27.7358 212.046 28.2983 212.955 28.7017C213.87 29.1051 214.952 29.3068 216.202 29.3068C217.543 29.3068 218.682 29.0824 219.62 28.6335C220.563 28.1847 221.279 27.5795 221.767 26.8182C222.262 26.0568 222.509 25.2045 222.509 24.2614C222.509 23.4432 222.341 22.7528 222.006 22.1903C221.671 21.6278 221.245 21.1676 220.728 20.8097C220.216 20.446 219.679 20.1591 219.117 19.9489C218.56 19.7386 218.054 19.5739 217.6 19.4545L215.827 18.9773C215.503 18.892 215.148 18.7813 214.762 18.6449C214.375 18.5028 214.006 18.3239 213.654 18.108C213.301 17.8864 213.012 17.6108 212.784 17.2813C212.563 16.946 212.452 16.5455 212.452 16.0795C212.452 15.5227 212.611 15.0256 212.929 14.5881C213.253 14.1506 213.702 13.8068 214.276 13.5568C214.855 13.3068 215.532 13.1818 216.304 13.1818C217.361 13.1818 218.253 13.4205 218.98 13.8977ZM231.234 29H233.45L235.205 24.0568H242.263L244.018 29H246.234L239.825 11.5455H237.643L231.234 29ZM241.598 22.1818L238.802 14.3068H238.666L235.87 22.1818H241.598ZM254.85 11.5455H248.953V29H251.066V22.625H254.885C256.243 22.625 257.356 22.3778 258.225 21.8835C259.095 21.3835 259.737 20.7131 260.152 19.8722C260.572 19.0313 260.782 18.0966 260.782 17.0682C260.782 16.0398 260.572 15.108 260.152 14.2727C259.731 13.4375 259.083 12.7756 258.208 12.2869C257.339 11.7926 256.22 11.5455 254.85 11.5455ZM251.066 20.75H254.816C255.754 20.75 256.507 20.5881 257.075 20.2642C257.643 19.9403 258.055 19.5028 258.311 18.9517C258.572 18.3949 258.703 17.767 258.703 17.0682C258.703 16.3693 258.572 15.7443 258.311 15.1932C258.055 14.642 257.64 14.2102 257.066 13.8977C256.493 13.5795 255.731 13.4205 254.782 13.4205H251.066V20.75ZM270.085 11.5455H264.187V29H266.301V22.625H270.119C271.477 22.625 272.591 22.3778 273.46 21.8835C274.329 21.3835 274.971 20.7131 275.386 19.8722C275.806 19.0313 276.017 18.0966 276.017 17.0682C276.017 16.0398 275.806 15.108 275.386 14.2727C274.966 13.4375 274.318 12.7756 273.443 12.2869C272.573 11.7926 271.454 11.5455 270.085 11.5455ZM266.301 20.75H270.051C270.988 20.75 271.741 20.5881 272.309 20.2642C272.877 19.9403 273.289 19.5028 273.545 18.9517C273.806 18.3949 273.937 17.767 273.937 17.0682C273.937 16.3693 273.806 15.7443 273.545 15.1932C273.289 14.642 272.875 14.2102 272.301 13.8977C271.727 13.5795 270.966 13.4205 270.017 13.4205H266.301V20.75Z" fill="#2980B9"/>
<path d="M46.7516 2.27434L46.3516 2.96717L46.3516 2.96717L46.7516 2.27434ZM33.7743 5.75159L33.0815 5.35159L33.0815 5.35159L33.7743 5.75159ZM50.2288 15.2516L50.9216 15.6516L50.9216 15.6516L50.2288 15.2516ZM41.9788 29.541L41.286 29.141L41.286 29.141L41.9788 29.541ZM28.3186 33.2013L27.9186 33.8941L27.9186 33.8941L28.3186 33.2013ZM21.8939 29.492L22.2939 28.7991L21.6011 28.3991L21.2011 29.092L21.8939 29.492ZM18.7288 34.974L18.036 34.574L18.036 34.574L18.7288 34.974ZM5.75159 38.4513L5.35159 39.1441L5.35159 39.1441L5.75159 38.4513ZM2.27434 25.474L1.58152 25.074L1.58152 25.074L2.27434 25.474ZM10.5243 11.1846L11.2172 11.5846L11.2172 11.5846L10.5243 11.1846ZM24.1846 7.52435L24.5846 6.83152L24.1846 7.52435ZM30.6093 11.2336L30.2093 11.9265L30.9021 12.3265L31.3021 11.6336L30.6093 11.2336ZM71.1622 15.9091L70.3678 16.0032L70.4514 16.7091H71.1622V15.9091ZM73.2077 15.9091V16.7091H74.0339L74.0073 15.8833L73.2077 15.9091ZM72.3895 13.5483L71.7457 14.0232L71.7483 14.0266L72.3895 13.5483ZM70.31 11.9119L69.975 12.6385L69.9789 12.6402L70.31 11.9119ZM64.2844 11.9205L64.6123 12.6502L64.6144 12.6492L64.2844 11.9205ZM62.1367 13.625L61.4901 13.1539L61.4895 13.1548L62.1367 13.625ZM62.5373 19.0369L63.0771 18.4465L63.0771 18.4465L62.5373 19.0369ZM65.7759 20.7159L65.5548 21.4848L65.5561 21.4851L65.7759 20.7159ZM67.9236 21.3295L67.7038 22.0988L67.7095 22.1004L67.9236 21.3295ZM69.6367 21.9261L69.3206 22.661L69.3206 22.661L69.6367 21.9261ZM70.9151 22.8125L71.5125 22.2804L71.5125 22.2804L70.9151 22.8125ZM70.8384 25.8977L71.4646 26.3957L71.4674 26.392L70.8384 25.8977ZM69.3128 27.0057L69.6145 27.7467L69.62 27.7443L69.3128 27.0057ZM65.1963 27.0909L64.9304 27.8455L64.9391 27.8484L65.1963 27.0909ZM63.7134 26.1364L63.1171 26.6699L63.1246 26.678L63.7134 26.1364ZM63.0486 24.5L63.8457 24.4313L63.7826 23.7H63.0486V24.5ZM60.8668 24.5V23.7H60.0076L60.0688 24.557L60.8668 24.5ZM61.7446 27.0142L61.0943 27.4802L61.0968 27.4835L61.7446 27.0142ZM63.8924 28.7017L63.5679 29.4329L63.5696 29.4337L63.8924 28.7017ZM70.5571 28.6335L70.2134 27.9112L70.2117 27.912L70.5571 28.6335ZM72.7049 26.8182L72.0339 26.3825L72.0316 26.3861L72.7049 26.8182ZM72.9435 22.1903L72.2563 22.5999L72.2563 22.5999L72.9435 22.1903ZM71.6651 20.8097L71.2014 21.4617L71.2097 21.4674L71.6651 20.8097ZM70.0543 19.9489L69.7717 20.6973L69.7742 20.6982L70.0543 19.9489ZM68.5372 19.4545L68.3293 20.2271L68.3341 20.2283L68.5372 19.4545ZM66.7645 18.9773L66.9725 18.2048L66.9681 18.2036L66.7645 18.9773ZM65.6992 18.6449L65.4231 19.3958L65.4329 19.3993L65.6992 18.6449ZM64.5912 18.108L64.1652 18.7852L64.1732 18.79L64.5912 18.108ZM63.7219 17.2813L63.0545 17.7224L63.0589 17.729L63.0633 17.7354L63.7219 17.2813ZM63.8668 14.5881L63.2238 14.1121L63.2198 14.1175L63.8668 14.5881ZM65.2134 13.5568L64.8965 12.8222L64.8939 12.8234L65.2134 13.5568ZM90.6516 25.0455L89.9348 24.6901L89.9348 24.6901L90.6516 25.0455ZM79.9726 12.3977L79.5474 11.7201L79.5474 11.7201L79.9726 12.3977ZM77.2368 25.0455L77.9536 24.6901L77.9536 24.6901L77.2368 25.0455ZM79.9726 28.1477L79.5474 28.8254L79.5474 28.8254L79.9726 28.1477ZM87.9158 28.1477L88.341 28.8254L88.341 28.8254L87.9158 28.1477ZM88.8448 16.446L88.1238 16.7927L88.1254 16.7959L88.8448 16.446ZM88.8448 24.0994L88.1253 23.7495L88.1238 23.7527L88.8448 24.0994ZM86.8078 26.4602L86.3851 25.7811L86.383 25.7823L86.8078 26.4602ZM81.0721 26.4602L80.6472 27.1381L80.6493 27.1394L81.0721 26.4602ZM79.0351 24.0994L78.3141 24.4461L78.3157 24.4493L79.0351 24.0994ZM79.0351 16.446L78.3157 16.0961L78.3141 16.0993L79.0351 16.446ZM81.0721 14.0852L80.6493 13.4061L80.6472 13.4073L81.0721 14.0852ZM86.8078 14.0852L86.383 14.7631L86.3851 14.7644L86.8078 14.0852ZM109.248 17V17.8H110.202L110.036 16.8604L109.248 17ZM107.135 17L106.351 17.1611L106.482 17.8H107.135V17ZM108.379 14.6051L107.692 15.0151L107.693 15.0175L108.379 14.6051ZM106.811 12.8153L106.314 13.4428L106.318 13.4456L106.811 12.8153ZM104.706 11.6903L104.454 12.4498L104.456 12.4504L104.706 11.6903ZM98.2539 12.3977L97.8287 11.7201L97.8287 11.7201L98.2539 12.3977ZM95.5181 25.0455L96.2348 24.6901L96.2348 24.6901L95.5181 25.0455ZM98.2539 28.1477L97.8287 28.8254L97.8287 28.8254L98.2539 28.1477ZM104.706 28.8551L104.456 28.0951L104.454 28.0956L104.706 28.8551ZM106.811 27.7386L107.303 28.3689L107.307 28.3661L106.811 27.7386ZM108.379 25.9403L107.692 25.5304L107.692 25.5304L108.379 25.9403ZM109.248 23.5455L110.036 23.6859L110.203 22.7455H109.248V23.5455ZM107.135 23.5455V22.7455H106.484L106.351 23.3829L107.135 23.5455ZM106.478 25.1477L105.814 24.7021L105.813 24.704L106.478 25.1477ZM105.353 26.3153L105.818 26.9663L105.82 26.9652L105.353 26.3153ZM103.896 27.0227L103.668 26.256L103.668 26.256L103.896 27.0227ZM99.3533 26.4602L98.9285 27.1381L98.9305 27.1394L99.3533 26.4602ZM97.3164 24.0994L96.5954 24.4461L96.5969 24.4493L97.3164 24.0994ZM97.3164 16.446L96.5969 16.0961L96.5954 16.0993L97.3164 16.446ZM99.3533 14.0852L98.9305 13.4061L98.9285 13.4073L99.3533 14.0852ZM103.896 13.5227L103.668 14.2894L103.668 14.2894L103.896 13.5227ZM105.353 14.2386L104.883 14.8857L104.892 14.8924L105.353 14.2386ZM106.478 15.3977L105.813 15.8415L105.816 15.8471L106.478 15.3977ZM114.777 29V29.8H115.577V29H114.777ZM112.664 29H111.864V29.8H112.664V29ZM114.777 11.5455H115.577V10.7455H114.777V11.5455ZM112.664 11.5455V10.7455H111.864V11.5455H112.664ZM119.731 29V29.8H120.296L120.485 29.2676L119.731 29ZM117.515 29L116.764 28.7243L116.369 29.8H117.515V29ZM121.486 24.0568V23.2568H120.921L120.732 23.7892L121.486 24.0568ZM128.545 24.0568L129.298 23.7892L129.109 23.2568H128.545V24.0568ZM130.299 29L129.545 29.2676L129.734 29.8H130.299V29ZM132.515 29V29.8H133.661L133.266 28.7243L132.515 29ZM126.106 11.5455L126.857 11.2697L126.665 10.7455H126.106V11.5455ZM123.924 11.5455V10.7455H123.366L123.173 11.2697L123.924 11.5455ZM127.879 22.1818V22.9818H129.012L128.633 21.9142L127.879 22.1818ZM125.083 14.3068L125.837 14.0392L125.648 13.5068H125.083V14.3068ZM124.947 14.3068V13.5068H124.382L124.193 14.0392L124.947 14.3068ZM122.152 22.1818L121.398 21.9142L121.019 22.9818H122.152V22.1818ZM135.234 11.5455V10.7455H134.434V11.5455H135.234ZM137.348 11.5455H138.148V10.7455H137.348V11.5455ZM135.234 29H134.434V29.8H135.234V29ZM145.461 29V29.8H146.261V29H145.461ZM145.461 27.125H146.261V26.325H145.461V27.125ZM137.348 27.125H136.548V27.925H137.348V27.125ZM169.325 29V29.8H170.125V29H169.325ZM167.279 29L166.622 29.4561L166.861 29.8H167.279V29ZM169.325 11.5455H170.125V10.7455H169.325V11.5455ZM167.245 11.5455V10.7455H166.445V11.5455H167.245ZM167.245 25.2841V26.0841H168.045V25.2841H167.245ZM167.075 25.2841L166.418 25.7406L166.657 26.0841H167.075V25.2841ZM157.529 11.5455L158.186 11.089L157.948 10.7455H157.529V11.5455ZM155.484 11.5455V10.7455H154.684V11.5455H155.484ZM155.484 29H154.684V29.8H155.484V29ZM157.598 29V29.8H158.398V29H157.598ZM157.598 15.2955V14.4955H156.798V15.2955H157.598ZM157.768 15.2955L158.425 14.8393L158.187 14.4955H157.768V15.2955ZM173.554 11.5455V10.7455H172.754V11.5455H173.554ZM184.088 11.5455H184.888V10.7455H184.088V11.5455ZM173.554 29H172.754V29.8H173.554V29ZM184.225 29V29.8H185.025V29H184.225ZM184.225 27.125H185.025V26.325H184.225V27.125ZM175.668 27.125H174.868V27.925H175.668V27.125ZM175.668 21.1932V20.3932H174.868V21.1932H175.668ZM183.543 21.1932V21.9932H184.343V21.1932H183.543ZM183.543 19.3182H184.343V18.5182H183.543V19.3182ZM175.668 19.3182H174.868V20.1182H175.668V19.3182ZM175.668 13.4205V12.6205H174.868V13.4205H175.668ZM184.088 13.4205V14.2205H184.888V13.4205H184.088ZM186.296 11.5455V10.7455H185.248L185.524 11.7565L186.296 11.5455ZM188.443 11.5455L189.218 11.3466L189.064 10.7455H188.443V11.5455ZM191.068 29L190.297 29.211L190.458 29.8H191.068V29ZM193.25 29V29.8H193.859L194.021 29.2135L193.25 29ZM197.103 15.0909V14.2909H196.494L196.332 14.8774L197.103 15.0909ZM197.239 15.0909L198.01 14.8774L197.848 14.2909H197.239V15.0909ZM201.091 29L200.32 29.2135L200.483 29.8H201.091V29ZM203.273 29V29.8H203.884L204.045 29.211L203.273 29ZM208.046 11.5455L208.817 11.7565L209.094 10.7455H208.046V11.5455ZM205.898 11.5455V10.7455H205.277L205.123 11.3466L205.898 11.5455ZM202.25 25.7614V26.5614H202.871L203.025 25.9602L202.25 25.7614ZM202.08 25.7614L201.306 25.9637L201.462 26.5614H202.08V25.7614ZM198.364 11.5455L199.138 11.3431L198.982 10.7455H198.364V11.5455ZM195.978 11.5455V10.7455H195.36L195.204 11.3431L195.978 11.5455ZM192.262 25.7614V26.5614H192.879L193.036 25.9637L192.262 25.7614ZM192.091 25.7614L191.316 25.9602L191.471 26.5614H192.091V25.7614ZM220.225 15.9091L219.43 16.0032L219.514 16.7091H220.225V15.9091ZM218.98 13.8977L219.419 13.2289L219.419 13.2289L218.98 13.8977ZM222.27 15.9091V16.7091H223.096L223.07 15.8833L222.27 15.9091ZM221.452 13.5483L220.808 14.0232L220.811 14.0266L221.452 13.5483ZM219.372 11.9119L219.038 12.6385L219.041 12.6402L219.372 11.9119ZM213.347 11.9205L213.675 12.6502L213.677 12.6492L213.347 11.9205ZM211.199 13.625L210.553 13.1539L210.552 13.1548L211.199 13.625ZM211.6 19.0369L211.06 19.6274L211.06 19.6274L211.6 19.0369ZM214.838 20.7159L214.617 21.4848L214.619 21.4851L214.838 20.7159ZM216.986 21.3295L216.766 22.0988L216.772 22.1004L216.986 21.3295ZM218.699 21.9261L219.015 21.1912L219.015 21.1912L218.699 21.9261ZM219.978 22.8125L219.38 23.3446L219.38 23.3446L219.978 22.8125ZM219.901 25.8977L220.527 26.3957L220.53 26.392L219.901 25.8977ZM218.375 27.0057L218.677 27.7467L218.683 27.7443L218.375 27.0057ZM214.259 27.0909L213.993 27.8455L214.002 27.8484L214.259 27.0909ZM212.776 26.1364L212.18 26.6698L212.187 26.678L212.776 26.1364ZM212.111 24.5L212.908 24.4313L212.845 23.7H212.111V24.5ZM209.929 24.5V23.7H209.07L209.131 24.557L209.929 24.5ZM210.807 27.0142L210.157 27.4802L210.159 27.4835L210.807 27.0142ZM212.955 28.7017L212.63 29.4329L212.632 29.4337L212.955 28.7017ZM219.62 28.6335L219.276 27.9112L219.274 27.912L219.62 28.6335ZM221.767 26.8182L221.096 26.3825L221.094 26.3861L221.767 26.8182ZM222.006 22.1903L221.319 22.5999L221.319 22.5999L222.006 22.1903ZM220.728 20.8097L220.264 21.4617L220.272 21.4674L220.728 20.8097ZM219.117 19.9489L218.834 20.6973L218.837 20.6982L219.117 19.9489ZM217.6 19.4545L217.392 20.2271L217.397 20.2283L217.6 19.4545ZM215.827 18.9773L216.035 18.2048L216.031 18.2036L215.827 18.9773ZM214.762 18.6449L214.486 19.3958L214.495 19.3993L214.762 18.6449ZM213.654 18.108L213.228 18.7852L213.236 18.79L213.654 18.108ZM212.784 17.2813L212.117 17.7224L212.121 17.729L212.126 17.7355L212.784 17.2813ZM212.929 14.5881L212.286 14.1121L212.282 14.1175L212.929 14.5881ZM214.276 13.5568L213.959 12.8222L213.956 12.8234L214.276 13.5568ZM233.45 29V29.8H234.015L234.204 29.2676L233.45 29ZM231.234 29L230.483 28.7243L230.088 29.8H231.234V29ZM235.205 24.0568V23.2568H234.64L234.451 23.7892L235.205 24.0568ZM242.263 24.0568L243.017 23.7892L242.828 23.2568H242.263V24.0568ZM244.018 29L243.264 29.2676L243.453 29.8H244.018V29ZM246.234 29V29.8H247.38L246.985 28.7243L246.234 29ZM239.825 11.5455L240.576 11.2697L240.383 10.7455H239.825V11.5455ZM237.643 11.5455V10.7455H237.085L236.892 11.2697L237.643 11.5455ZM241.598 22.1818V22.9818H242.731L242.352 21.9142L241.598 22.1818ZM238.802 14.3068L239.556 14.0392L239.367 13.5068H238.802V14.3068ZM238.666 14.3068V13.5068H238.101L237.912 14.0392L238.666 14.3068ZM235.87 22.1818L235.116 21.9142L234.737 22.9818H235.87V22.1818ZM248.953 11.5455V10.7455H248.153V11.5455H248.953ZM248.953 29H248.153V29.8H248.953V29ZM251.066 29V29.8H251.866V29H251.066ZM251.066 22.625V21.825H250.266V22.625H251.066ZM258.225 21.8835L258.621 22.579L258.624 22.577L258.225 21.8835ZM260.152 19.8722L259.436 19.5144L259.434 19.5183L260.152 19.8722ZM260.152 14.2727L260.866 13.913L260.866 13.913L260.152 14.2727ZM258.208 12.2869L257.813 12.9824L257.818 12.9854L258.208 12.2869ZM251.066 20.75H250.266V21.55H251.066V20.75ZM258.311 18.9517L257.586 18.6118L257.585 18.615L258.311 18.9517ZM258.311 15.1932L257.585 15.5299L257.588 15.536L258.311 15.1932ZM257.066 13.8977L256.678 14.5974L256.684 14.6003L257.066 13.8977ZM251.066 13.4205V12.6205H250.266V13.4205H251.066ZM264.187 11.5455V10.7455H263.387V11.5455H264.187ZM264.187 29H263.387V29.8H264.187V29ZM266.301 29V29.8H267.101V29H266.301ZM266.301 22.625V21.825H265.501V22.625H266.301ZM273.46 21.8835L273.855 22.579L273.859 22.577L273.46 21.8835ZM275.386 19.8722L274.67 19.5144L274.669 19.5183L275.386 19.8722ZM275.386 14.2727L276.101 13.913L276.101 13.913L275.386 14.2727ZM273.443 12.2869L273.047 12.9824L273.053 12.9854L273.443 12.2869ZM266.301 20.75H265.501V21.55H266.301V20.75ZM273.545 18.9517L272.821 18.6118L272.819 18.615L273.545 18.9517ZM273.545 15.1932L272.819 15.5299L272.822 15.536L273.545 15.1932ZM272.301 13.8977L271.913 14.5974L271.918 14.6003L272.301 13.8977ZM266.301 13.4205V12.6205H265.501V13.4205H266.301ZM47.1516 1.58152C42.2252 -1.26274 35.9258 0.425172 33.0815 5.35159L34.4672 6.15159C36.8696 1.99044 42.1904 0.564726 46.3516 2.96717L47.1516 1.58152ZM50.9216 15.6516C53.7659 10.7252 52.078 4.42579 47.1516 1.58152L46.3516 2.96717C50.5127 5.3696 51.9384 10.6904 49.536 14.8516L50.9216 15.6516ZM42.6716 29.941L50.9216 15.6516L49.536 14.8516L41.286 29.141L42.6716 29.941ZM27.9186 33.8941C33.0841 36.8764 39.6893 35.1066 42.6716 29.941L41.286 29.141C38.7455 33.5413 33.1189 35.049 28.7186 32.5084L27.9186 33.8941ZM21.4939 30.1848L27.9186 33.8941L28.7186 32.5084L22.2939 28.7991L21.4939 30.1848ZM19.4216 35.374L22.5867 29.892L21.2011 29.092L18.036 34.574L19.4216 35.374ZM5.35159 39.1441C10.278 41.9883 16.5774 40.3004 19.4216 35.374L18.036 34.574C15.6336 38.7352 10.3127 40.1609 6.15159 37.7584L5.35159 39.1441ZM1.58152 25.074C-1.26274 30.0004 0.425172 36.2998 5.35159 39.1441L6.15159 37.7584C1.99044 35.356 0.564727 30.0352 2.96717 25.874L1.58152 25.074ZM9.83152 10.7846L1.58152 25.074L2.96717 25.874L11.2172 11.5846L9.83152 10.7846ZM24.5846 6.83152C19.419 3.84919 12.8139 5.61904 9.83152 10.7846L11.2172 11.5846C13.7577 7.18431 19.3843 5.67666 23.7846 8.21717L24.5846 6.83152ZM31.0093 10.5408L24.5846 6.83152L23.7846 8.21717L30.2093 11.9265L31.0093 10.5408ZM33.0815 5.35159L29.9165 10.8336L31.3021 11.6336L34.4672 6.15159L33.0815 5.35159ZM71.9567 15.815C71.8266 14.7166 71.2817 13.8358 70.3569 13.2289L69.479 14.5666C70.0087 14.9142 70.2933 15.3743 70.3678 16.0032L71.9567 15.815ZM73.2077 15.1091H71.1622V16.7091H73.2077V15.1091ZM71.7483 14.0266C72.1656 14.5861 72.3849 15.2144 72.4081 15.9349L74.0073 15.8833C73.9737 14.8424 73.6476 13.8969 73.0308 13.07L71.7483 14.0266ZM69.9789 12.6402C70.7445 12.9882 71.3244 13.452 71.7457 14.0232L73.0333 13.0734C72.4319 12.2582 71.6255 11.6311 70.641 11.1836L69.9789 12.6402ZM67.31 12.1068C68.3386 12.1068 69.2212 12.2909 69.975 12.6384L70.6449 11.1854C69.6487 10.7261 68.5314 10.5068 67.31 10.5068V12.1068ZM64.6144 12.6492C65.4021 12.2925 66.2961 12.1068 67.31 12.1068V10.5068C66.0966 10.5068 64.9736 10.7302 63.9544 11.1917L64.6144 12.6492ZM62.7832 14.0961C63.2285 13.4851 63.8303 13.0016 64.6123 12.6502L63.9565 11.1907C62.943 11.6462 62.113 12.299 61.4901 13.1539L62.7832 14.0961ZM62.1441 16.1818C62.1441 15.358 62.3635 14.6738 62.7839 14.0952L61.4895 13.1548C60.853 14.0308 60.5441 15.0511 60.5441 16.1818H62.1441ZM63.0771 18.4465C62.4635 17.8856 62.1441 17.1562 62.1441 16.1818H60.5441C60.5441 17.5597 61.02 18.7337 61.9974 19.6274L63.0771 18.4465ZM65.9969 19.9471C64.7159 19.5788 63.7573 19.0685 63.0771 18.4465L61.9974 19.6274C62.9081 20.46 64.1086 21.069 65.5548 21.4848L65.9969 19.9471ZM68.1434 20.5603L65.9957 19.9467L65.5561 21.4851L67.7038 22.0988L68.1434 20.5603ZM69.9528 21.1912C69.3879 20.9483 68.7825 20.7378 68.1377 20.5587L67.7095 22.1004C68.292 22.2622 68.8286 22.4494 69.3206 22.661L69.9528 21.1912ZM71.5125 22.2804C71.098 21.815 70.5694 21.4564 69.9528 21.1912L69.3206 22.661C69.7608 22.8504 70.0845 23.0827 70.3177 23.3446L71.5125 22.2804ZM72.2009 24.2273C72.2009 23.4909 71.9908 22.8175 71.5125 22.2804L70.3177 23.3446C70.4871 23.5348 70.6009 23.8046 70.6009 24.2273H72.2009ZM71.4674 26.392C71.9588 25.7666 72.2009 25.0336 72.2009 24.2273H70.6009C70.6009 24.6937 70.468 25.0743 70.2093 25.4035L71.4674 26.392ZM69.62 27.7443C70.3676 27.4334 70.9931 26.9885 71.4646 26.3956L70.2122 25.3998C69.9337 25.7501 69.5421 26.0439 69.0056 26.267L69.62 27.7443ZM67.1395 28.1977C68.033 28.1977 68.8623 28.0528 69.6145 27.7466L69.0112 26.2647C68.4793 26.4813 67.8597 26.5977 67.1395 26.5977V28.1977ZM64.9391 27.8484C65.6313 28.0835 66.3667 28.1977 67.1395 28.1977V26.5977C66.526 26.5977 65.9659 26.5074 65.4536 26.3334L64.9391 27.8484ZM63.1246 26.678C63.6133 27.2091 64.2221 27.5958 64.9305 27.8454L65.4622 26.3364C64.9774 26.1655 64.5976 25.9159 64.3021 25.5947L63.1246 26.678ZM62.2516 24.5687C62.3211 25.3748 62.5993 26.091 63.1172 26.6698L64.3096 25.6029C64.0547 25.3181 63.8898 24.9434 63.8457 24.4313L62.2516 24.5687ZM60.8668 25.3H63.0486V23.7H60.8668V25.3ZM62.3949 26.5482C61.9706 25.9561 61.7233 25.2622 61.6648 24.443L60.0688 24.557C60.1467 25.6469 60.4845 26.6291 61.0943 27.4802L62.3949 26.5482ZM64.2169 27.9705C63.4214 27.6175 62.8231 27.1393 62.3925 26.5449L61.0968 27.4835C61.7116 28.3323 62.5451 28.9791 63.5679 29.4329L64.2169 27.9705ZM67.1395 28.5068C65.9737 28.5068 65.0062 28.3185 64.2152 27.9697L63.5696 29.4337C64.6081 29.8917 65.8053 30.1068 67.1395 30.1068V28.5068ZM70.2117 27.912C69.4086 28.2965 68.3943 28.5068 67.1395 28.5068V30.1068C68.5666 30.1068 69.8307 29.8683 70.9026 29.3551L70.2117 27.912ZM72.0316 26.3861C71.6354 27.0034 71.043 27.5163 70.2134 27.9112L70.9009 29.3559C71.9576 28.853 72.7971 28.1557 73.3781 27.2503L72.0316 26.3861ZM72.6463 24.2614C72.6463 25.0563 72.4406 25.7561 72.0339 26.3825L73.3758 27.2538C73.9578 26.3575 74.2463 25.3528 74.2463 24.2614H72.6463ZM72.2563 22.5999C72.5014 23.0111 72.6463 23.5517 72.6463 24.2614H74.2463C74.2463 23.3346 74.0561 22.4946 73.6307 21.7808L72.2563 22.5999ZM71.2097 21.4674C71.6287 21.7575 71.9772 22.1316 72.2563 22.5999L73.6307 21.7808C73.2393 21.1241 72.7356 20.5777 72.1205 20.1519L71.2097 21.4674ZM69.7742 20.6982C70.2687 20.883 70.7442 21.1365 71.2015 21.4616L72.1287 20.1577C71.5632 19.7556 70.9649 19.4351 70.3344 19.1995L69.7742 20.6982ZM68.3341 20.2283C68.7558 20.339 69.2344 20.4944 69.7717 20.6973L70.3369 19.2004C69.7605 18.9828 69.2278 18.8087 68.7404 18.6808L68.3341 20.2283ZM66.5565 19.7498L68.3293 20.227L68.7452 18.6821L66.9725 18.2048L66.5565 19.7498ZM65.4329 19.3993C65.8355 19.5414 66.2119 19.6591 66.5609 19.7509L66.9681 18.2036C66.6694 18.125 66.3355 18.0211 65.9654 17.8905L65.4329 19.3993ZM64.1732 18.79C64.5702 19.0334 64.9871 19.2354 65.4231 19.3958L65.9752 17.894C65.6385 17.7702 65.3168 17.6143 65.0093 17.4259L64.1732 18.79ZM63.0633 17.7354C63.3547 18.1579 63.7248 18.5081 64.1653 18.7851L65.0172 17.4308C64.7531 17.2646 64.5437 17.0637 64.3805 16.8271L63.0633 17.7354ZM62.5895 16.0795C62.5895 16.6767 62.7333 17.2364 63.0545 17.7224L64.3893 16.8401C64.2673 16.6556 64.1895 16.4142 64.1895 16.0795H62.5895ZM63.2198 14.1175C62.7991 14.696 62.5895 15.359 62.5895 16.0795H64.1895C64.1895 15.6865 64.2981 15.3551 64.5138 15.0586L63.2198 14.1175ZM64.8939 12.8234C64.211 13.1209 63.6429 13.5459 63.2238 14.1121L64.5098 15.0641C64.7384 14.7552 65.068 14.4928 65.5329 14.2902L64.8939 12.8234ZM67.2418 12.3818C66.3839 12.3818 65.5959 12.5206 64.8965 12.8223L65.5303 14.2914C65.99 14.0931 66.5542 13.9818 67.2418 13.9818V12.3818ZM70.3569 13.2289C69.4735 12.6492 68.4208 12.3818 67.2418 12.3818V13.9818C68.1765 13.9818 68.9078 14.1917 69.479 14.5666L70.3569 13.2289ZM90.8488 20.2727C90.8488 22.0182 90.5337 23.4821 89.9348 24.6901L91.3683 25.4008C92.099 23.927 92.4488 22.2091 92.4488 20.2727H90.8488ZM89.9348 15.8553C90.5337 17.0633 90.8488 18.5273 90.8488 20.2727H92.4488C92.4488 18.3364 92.099 16.6185 91.3683 15.1447L89.9348 15.8553ZM87.4906 13.0754C88.513 13.7169 89.3293 14.6339 89.9348 15.8553L91.3683 15.1447C90.6444 13.6843 89.6367 12.5331 88.341 11.7201L87.4906 13.0754ZM83.9442 12.1068C85.2962 12.1068 86.4701 12.435 87.4906 13.0754L88.341 11.7201C87.0433 10.9059 85.5695 10.5068 83.9442 10.5068V12.1068ZM80.3978 13.0754C81.4183 12.435 82.5923 12.1068 83.9442 12.1068V10.5068C82.3189 10.5068 80.8451 10.9059 79.5474 11.7201L80.3978 13.0754ZM77.9536 15.8553C78.5591 14.6339 79.3754 13.7169 80.3978 13.0754L79.5474 11.7201C78.2517 12.5331 77.2441 13.6843 76.5201 15.1447L77.9536 15.8553ZM77.0397 20.2727C77.0397 18.5273 77.3547 17.0633 77.9536 15.8553L76.5201 15.1447C75.7894 16.6185 75.4397 18.3364 75.4397 20.2727H77.0397ZM77.9536 24.6901C77.3547 23.4821 77.0397 22.0182 77.0397 20.2727H75.4397C75.4397 22.2091 75.7894 23.927 76.5201 25.4008L77.9536 24.6901ZM80.3978 27.4701C79.3754 26.8286 78.5591 25.9116 77.9536 24.6901L76.5201 25.4008C77.2441 26.8612 78.2517 28.0124 79.5474 28.8254L80.3978 27.4701ZM83.9442 28.4386C82.5923 28.4386 81.4183 28.1104 80.3978 27.4701L79.5474 28.8254C80.8451 29.6396 82.3189 30.0386 83.9442 30.0386V28.4386ZM87.4906 27.4701C86.4701 28.1104 85.2962 28.4386 83.9442 28.4386V30.0386C85.5695 30.0386 87.0433 29.6396 88.341 28.8254L87.4906 27.4701ZM89.9348 24.6901C89.3293 25.9116 88.513 26.8286 87.4906 27.4701L88.341 28.8254C89.6367 28.0124 90.6444 26.8612 91.3683 25.4008L89.9348 24.6901ZM90.4033 20.2727C90.4033 18.6759 90.1366 17.2731 89.5642 16.0961L88.1254 16.7959C88.5643 17.6985 88.8033 18.8468 88.8033 20.2727H90.4033ZM89.5642 24.4493C90.1366 23.2724 90.4033 21.8695 90.4033 20.2727H88.8033C88.8033 21.6986 88.5643 22.8469 88.1254 23.7495L89.5642 24.4493ZM87.2306 27.1394C88.2351 26.5141 89.0095 25.6029 89.5658 24.4461L88.1238 23.7527C87.6801 24.6755 87.0966 25.3382 86.3851 25.7811L87.2306 27.1394ZM83.9442 28.0614C85.1433 28.0614 86.2465 27.7561 87.2327 27.1381L86.383 25.7823C85.6647 26.2325 84.8588 26.4614 83.9442 26.4614V28.0614ZM80.6493 27.1394C81.64 27.7562 82.7451 28.0614 83.9442 28.0614V26.4614C83.0297 26.4614 82.22 26.2325 81.4948 25.7811L80.6493 27.1394ZM78.3157 24.4493C78.8769 25.6033 79.6499 26.5131 80.6472 27.1381L81.4969 25.7823C80.7897 25.3392 80.2047 24.6751 79.7545 23.7495L78.3157 24.4493ZM77.4851 20.2727C77.4851 21.8684 77.7486 23.2701 78.3141 24.4461L79.7561 23.7527C79.3216 22.8493 79.0851 21.6998 79.0851 20.2727H77.4851ZM78.3141 16.0993C77.7486 17.2754 77.4851 18.677 77.4851 20.2727H79.0851C79.0851 18.8457 79.3216 17.6962 79.7561 16.7927L78.3141 16.0993ZM80.6472 13.4073C79.6499 14.0324 78.8769 14.9422 78.3157 16.0961L79.7545 16.7959C80.2047 15.8703 80.7897 15.2063 81.4969 14.7631L80.6472 13.4073ZM83.9442 12.4841C82.7451 12.4841 81.64 12.7893 80.6493 13.4061L81.4948 14.7644C82.22 14.313 83.0297 14.0841 83.9442 14.0841V12.4841ZM87.2327 13.4073C86.2465 12.7893 85.1433 12.4841 83.9442 12.4841V14.0841C84.8588 14.0841 85.6647 14.313 86.383 14.7631L87.2327 13.4073ZM89.5658 16.0993C89.0095 14.9426 88.2351 14.0313 87.2306 13.4061L86.3851 14.7644C87.0966 15.2073 87.6801 15.87 88.1238 16.7927L89.5658 16.0993ZM109.248 16.2H107.135V17.8H109.248V16.2ZM107.693 15.0175C108.058 15.6232 108.316 16.327 108.46 17.1396L110.036 16.8604C109.862 15.8776 109.541 14.9848 109.064 14.1927L107.693 15.0175ZM106.318 13.4456C106.863 13.8713 107.32 14.3924 107.692 15.0151L109.066 14.1952C108.597 13.4088 108.009 12.7366 107.303 12.1851L106.318 13.4456ZM104.456 12.4504C105.148 12.6776 105.765 13.0085 106.314 13.4428L107.307 12.1879C106.606 11.6336 105.82 11.2145 104.955 10.9303L104.456 12.4504ZM102.225 12.1068C103.028 12.1068 103.769 12.2231 104.454 12.4498L104.957 10.9308C104.097 10.6462 103.185 10.5068 102.225 10.5068V12.1068ZM98.6791 13.0754C99.6996 12.435 100.874 12.1068 102.225 12.1068V10.5068C100.6 10.5068 99.1263 10.9059 97.8287 11.7201L98.6791 13.0754ZM96.2348 15.8553C96.8404 14.6339 97.6566 13.7169 98.6791 13.0754L97.8287 11.7201C96.5329 12.5331 95.5253 13.6843 94.8013 15.1447L96.2348 15.8553ZM95.3209 20.2727C95.3209 18.5273 95.636 17.0633 96.2348 15.8553L94.8013 15.1447C94.0706 16.6185 93.7209 18.3364 93.7209 20.2727H95.3209ZM96.2348 24.6901C95.636 23.4821 95.3209 22.0182 95.3209 20.2727H93.7209C93.7209 22.2091 94.0706 23.927 94.8013 25.4008L96.2348 24.6901ZM98.6791 27.4701C97.6566 26.8286 96.8404 25.9116 96.2348 24.6901L94.8013 25.4008C95.5253 26.8612 96.5329 28.0124 97.8287 28.8254L98.6791 27.4701ZM102.225 28.4386C100.874 28.4386 99.6996 28.1104 98.6791 27.4701L97.8287 28.8254C99.1263 29.6396 100.6 30.0386 102.225 30.0386V28.4386ZM104.454 28.0956C103.769 28.3224 103.028 28.4386 102.225 28.4386V30.0386C103.185 30.0386 104.097 29.8992 104.957 29.6146L104.454 28.0956ZM106.318 27.1084C105.768 27.5382 105.149 27.8673 104.456 28.0951L104.955 29.6152C105.819 29.3316 106.603 28.9164 107.303 28.3689L106.318 27.1084ZM107.692 25.5304C107.32 26.154 106.861 26.679 106.314 27.1112L107.307 28.3661C108.01 27.8097 108.597 27.1358 109.066 26.3503L107.692 25.5304ZM108.461 23.405C108.317 24.2118 108.058 24.9171 107.692 25.5304L109.066 26.3503C109.541 25.5545 109.861 24.6632 110.036 23.6859L108.461 23.405ZM107.135 24.3455H109.248V22.7455H107.135V24.3455ZM107.143 25.5934C107.518 25.0337 107.774 24.4017 107.918 23.708L106.351 23.3829C106.245 23.8938 106.064 24.3299 105.814 24.7021L107.143 25.5934ZM105.82 26.9652C106.342 26.5901 106.784 26.1307 107.144 25.5915L105.813 24.704C105.559 25.0852 105.251 25.4043 104.887 25.6655L105.82 26.9652ZM104.124 27.7894C104.74 27.606 105.306 27.3321 105.818 26.9663L104.888 25.6644C104.525 25.9236 104.12 26.1212 103.668 26.256L104.124 27.7894ZM102.225 28.0614C102.879 28.0614 103.513 27.9715 104.124 27.7894L103.668 26.256C103.21 26.3922 102.731 26.4614 102.225 26.4614V28.0614ZM98.9305 27.1394C99.9213 27.7562 101.026 28.0614 102.225 28.0614V26.4614C101.311 26.4614 100.501 26.2325 99.7761 25.7811L98.9305 27.1394ZM96.5969 24.4493C97.1582 25.6033 97.9311 26.5131 98.9285 27.1381L99.7781 25.7823C99.0709 25.3392 98.486 24.6751 98.0358 23.7495L96.5969 24.4493ZM95.7664 20.2727C95.7664 21.8684 96.0299 23.2701 96.5954 24.4461L98.0373 23.7527C97.6029 22.8493 97.3664 21.6998 97.3664 20.2727H95.7664ZM96.5954 16.0993C96.0299 17.2754 95.7664 18.677 95.7664 20.2727H97.3664C97.3664 18.8457 97.6029 17.6962 98.0373 16.7927L96.5954 16.0993ZM98.9285 13.4073C97.9311 14.0324 97.1582 14.9422 96.5969 16.0961L98.0358 16.7959C98.486 15.8703 99.0709 15.2063 99.7781 14.7631L98.9285 13.4073ZM102.225 12.4841C101.026 12.4841 99.9213 12.7893 98.9305 13.4061L99.7761 14.7644C100.501 14.313 101.311 14.0841 102.225 14.0841V12.4841ZM104.124 12.756C103.513 12.574 102.879 12.4841 102.225 12.4841V14.0841C102.731 14.0841 103.21 14.1533 103.668 14.2894L104.124 12.756ZM105.824 13.5917C105.311 13.2185 104.743 12.9402 104.124 12.756L103.668 14.2894C104.117 14.4234 104.521 14.6224 104.883 14.8856L105.824 13.5917ZM107.144 14.954C106.784 14.4134 106.34 13.9553 105.814 13.5848L104.892 14.8924C105.253 15.147 105.559 15.4616 105.813 15.8415L107.144 14.954ZM107.918 16.8389C107.774 16.1397 107.518 15.5052 107.14 14.9483L105.816 15.8471C106.063 16.2107 106.245 16.6444 106.351 17.1611L107.918 16.8389ZM114.777 28.2H112.664V29.8H114.777V28.2ZM113.977 11.5455V29H115.577V11.5455H113.977ZM112.664 12.3455H114.777V10.7455H112.664V12.3455ZM113.464 29V11.5455H111.864V29H113.464ZM119.731 28.2H117.515V29.8H119.731V28.2ZM120.732 23.7892L118.977 28.7324L120.485 29.2676L122.24 24.3245L120.732 23.7892ZM128.545 23.2568H121.486V24.8568H128.545V23.2568ZM131.053 28.7324L129.298 23.7892L127.791 24.3244L129.545 29.2676L131.053 28.7324ZM132.515 28.2H130.299V29.8H132.515V28.2ZM125.355 11.8212L131.764 29.2758L133.266 28.7243L126.857 11.2697L125.355 11.8212ZM123.924 12.3455H126.106V10.7455H123.924V12.3455ZM118.266 29.2758L124.675 11.8212L123.173 11.2697L116.764 28.7243L118.266 29.2758ZM128.633 21.9142L125.837 14.0392L124.33 14.5744L127.125 22.4494L128.633 21.9142ZM125.083 13.5068H124.947V15.1068H125.083V13.5068ZM124.193 14.0392L121.398 21.9142L122.905 22.4494L125.701 14.5744L124.193 14.0392ZM122.152 22.9818H127.879V21.3818H122.152V22.9818ZM135.234 12.3455H137.348V10.7455H135.234V12.3455ZM136.034 29V11.5455H134.434V29H136.034ZM145.461 28.2H135.234V29.8H145.461V28.2ZM144.661 27.125V29H146.261V27.125H144.661ZM137.348 27.925H145.461V26.325H137.348V27.925ZM136.548 11.5455V27.125H138.148V11.5455H136.548ZM169.325 28.2H167.279V29.8H169.325V28.2ZM168.525 11.5455V29H170.125V11.5455H168.525ZM167.245 12.3455H169.325V10.7455H167.245V12.3455ZM168.045 25.2841V11.5455H166.445V25.2841H168.045ZM167.075 26.0841H167.245V24.4841H167.075V26.0841ZM156.872 12.0019L166.418 25.7406L167.732 24.8276L158.186 11.089L156.872 12.0019ZM155.484 12.3455H157.529V10.7455H155.484V12.3455ZM156.284 29V11.5455H154.684V29H156.284ZM157.598 28.2H155.484V29.8H157.598V28.2ZM156.798 15.2955V29H158.398V15.2955H156.798ZM157.768 14.4955H157.598V16.0955H157.768V14.4955ZM167.937 28.5439L158.425 14.8393L157.111 15.7516L166.622 29.4561L167.937 28.5439ZM173.554 12.3455H184.088V10.7455H173.554V12.3455ZM174.354 29V11.5455H172.754V29H174.354ZM184.225 28.2H173.554V29.8H184.225V28.2ZM183.425 27.125V29H185.025V27.125H183.425ZM175.668 27.925H184.225V26.325H175.668V27.925ZM174.868 21.1932V27.125H176.468V21.1932H174.868ZM183.543 20.3932H175.668V21.9932H183.543V20.3932ZM182.743 19.3182V21.1932H184.343V19.3182H182.743ZM175.668 20.1182H183.543V18.5182H175.668V20.1182ZM174.868 13.4205V19.3182H176.468V13.4205H174.868ZM184.088 12.6205H175.668V14.2205H184.088V12.6205ZM183.288 11.5455V13.4205H184.888V11.5455H183.288ZM186.296 12.3455H188.443V10.7455H186.296V12.3455ZM191.84 28.789L187.067 11.3345L185.524 11.7565L190.297 29.211L191.84 28.789ZM193.25 28.2H191.068V29.8H193.25V28.2ZM196.332 14.8774L192.479 28.7865L194.021 29.2135L197.874 15.3044L196.332 14.8774ZM197.239 14.2909H197.103V15.8909H197.239V14.2909ZM201.862 28.7865L198.01 14.8774L196.468 15.3044L200.32 29.2135L201.862 28.7865ZM203.273 28.2H201.091V29.8H203.273V28.2ZM207.274 11.3345L202.501 28.789L204.045 29.211L208.817 11.7565L207.274 11.3345ZM205.898 12.3455H208.046V10.7455H205.898V12.3455ZM203.025 25.9602L206.673 11.7443L205.123 11.3466L201.475 25.5625L203.025 25.9602ZM202.08 26.5614H202.25V24.9614H202.08V26.5614ZM197.59 11.7478L201.306 25.9637L202.854 25.5591L199.138 11.3431L197.59 11.7478ZM195.978 12.3455H198.364V10.7455H195.978V12.3455ZM193.036 25.9637L196.752 11.7478L195.204 11.3431L191.488 25.5591L193.036 25.9637ZM192.091 26.5614H192.262V24.9614H192.091V26.5614ZM187.669 11.7443L191.316 25.9602L192.866 25.5625L189.218 11.3466L187.669 11.7443ZM221.019 15.815C220.889 14.7166 220.344 13.8358 219.419 13.2289L218.542 14.5666C219.071 14.9142 219.356 15.3743 219.43 16.0032L221.019 15.815ZM222.27 15.1091H220.225V16.7091H222.27V15.1091ZM220.811 14.0266C221.228 14.5861 221.447 15.2144 221.471 15.9349L223.07 15.8833C223.036 14.8424 222.71 13.8969 222.093 13.07L220.811 14.0266ZM219.041 12.6402C219.807 12.9882 220.387 13.452 220.808 14.0232L222.096 13.0734C221.494 12.2582 220.688 11.6311 219.704 11.1836L219.041 12.6402ZM216.372 12.1068C217.401 12.1068 218.284 12.2909 219.038 12.6384L219.707 11.1854C218.711 10.7261 217.594 10.5068 216.372 10.5068V12.1068ZM213.677 12.6492C214.465 12.2925 215.359 12.1068 216.372 12.1068V10.5068C215.159 10.5068 214.036 10.7302 213.017 11.1917L213.677 12.6492ZM211.846 14.0961C212.291 13.4851 212.893 13.0016 213.675 12.6502L213.019 11.1907C212.006 11.6462 211.176 12.299 210.553 13.1539L211.846 14.0961ZM211.207 16.1818C211.207 15.358 211.426 14.6738 211.846 14.0952L210.552 13.1548C209.916 14.0308 209.607 15.0511 209.607 16.1818H211.207ZM212.14 18.4465C211.526 17.8856 211.207 17.1562 211.207 16.1818H209.607C209.607 17.5597 210.083 18.7337 211.06 19.6274L212.14 18.4465ZM215.059 19.9471C213.778 19.5788 212.82 19.0685 212.14 18.4465L211.06 19.6274C211.971 20.46 213.171 21.069 214.617 21.4848L215.059 19.9471ZM217.206 20.5603L215.058 19.9467L214.619 21.4851L216.766 22.0988L217.206 20.5603ZM219.015 21.1912C218.45 20.9483 217.845 20.7378 217.2 20.5587L216.772 22.1004C217.355 22.2622 217.891 22.4494 218.383 22.661L219.015 21.1912ZM220.575 22.2804C220.16 21.815 219.632 21.4564 219.015 21.1912L218.383 22.661C218.823 22.8504 219.147 23.0827 219.38 23.3446L220.575 22.2804ZM221.263 24.2273C221.263 23.4909 221.053 22.8175 220.575 22.2804L219.38 23.3446C219.55 23.5348 219.663 23.8046 219.663 24.2273H221.263ZM220.53 26.392C221.021 25.7666 221.263 25.0336 221.263 24.2273H219.663C219.663 24.6937 219.53 25.0743 219.272 25.4035L220.53 26.392ZM218.683 27.7443C219.43 27.4334 220.056 26.9885 220.527 26.3956L219.275 25.3998C218.996 25.7501 218.605 26.0439 218.068 26.267L218.683 27.7443ZM216.202 28.1977C217.096 28.1977 217.925 28.0528 218.677 27.7466L218.074 26.2647C217.542 26.4813 216.922 26.5977 216.202 26.5977V28.1977ZM214.002 27.8484C214.694 28.0835 215.429 28.1977 216.202 28.1977V26.5977C215.589 26.5977 215.028 26.5074 214.516 26.3334L214.002 27.8484ZM212.187 26.678C212.676 27.2091 213.285 27.5958 213.993 27.8454L214.525 26.3364C214.04 26.1655 213.66 25.9159 213.365 25.5947L212.187 26.678ZM211.314 24.5687C211.384 25.3748 211.662 26.091 212.18 26.6698L213.372 25.6029C213.117 25.3181 212.952 24.9434 212.908 24.4313L211.314 24.5687ZM209.929 25.3H212.111V23.7H209.929V25.3ZM211.457 26.5482C211.033 25.9561 210.786 25.2622 210.727 24.443L209.131 24.557C209.209 25.6469 209.547 26.6291 210.157 27.4802L211.457 26.5482ZM213.279 27.9705C212.484 27.6175 211.886 27.1393 211.455 26.5449L210.159 27.4835C210.774 28.3323 211.608 28.9791 212.63 29.4329L213.279 27.9705ZM216.202 28.5068C215.036 28.5068 214.069 28.3185 213.278 27.9697L212.632 29.4337C213.671 29.8917 214.868 30.1068 216.202 30.1068V28.5068ZM219.274 27.912C218.471 28.2965 217.457 28.5068 216.202 28.5068V30.1068C217.629 30.1068 218.893 29.8683 219.965 29.3551L219.274 27.912ZM221.094 26.3861C220.698 27.0034 220.106 27.5163 219.276 27.9112L219.963 29.3559C221.02 28.853 221.86 28.1557 222.441 27.2503L221.094 26.3861ZM221.709 24.2614C221.709 25.0563 221.503 25.7561 221.096 26.3825L222.438 27.2538C223.02 26.3575 223.309 25.3528 223.309 24.2614H221.709ZM221.319 22.5999C221.564 23.0111 221.709 23.5517 221.709 24.2614H223.309C223.309 23.3347 223.119 22.4946 222.693 21.7808L221.319 22.5999ZM220.272 21.4674C220.691 21.7575 221.04 22.1316 221.319 22.5999L222.693 21.7808C222.302 21.1241 221.798 20.5777 221.183 20.1519L220.272 21.4674ZM218.837 20.6982C219.331 20.883 219.807 21.1365 220.264 21.4616L221.191 20.1577C220.626 19.7556 220.027 19.4351 219.397 19.1995L218.837 20.6982ZM217.397 20.2283C217.818 20.339 218.297 20.4944 218.834 20.6973L219.399 19.2004C218.823 18.9828 218.29 18.8087 217.803 18.6808L217.397 20.2283ZM215.619 19.7498L217.392 20.227L217.808 18.6821L216.035 18.2048L215.619 19.7498ZM214.495 19.3993C214.898 19.5414 215.274 19.6591 215.623 19.7509L216.031 18.2036C215.732 18.125 215.398 18.0211 215.028 17.8905L214.495 19.3993ZM213.236 18.79C213.633 19.0334 214.05 19.2354 214.486 19.3958L215.038 17.894C214.701 17.7702 214.379 17.6143 214.072 17.4259L213.236 18.79ZM212.126 17.7355C212.417 18.1579 212.787 18.5081 213.228 18.7851L214.08 17.4308C213.816 17.2646 213.606 17.0637 213.443 16.8271L212.126 17.7355ZM211.652 16.0795C211.652 16.6767 211.796 17.2364 212.117 17.7224L213.452 16.8401C213.33 16.6556 213.252 16.4142 213.252 16.0795H211.652ZM212.282 14.1175C211.862 14.696 211.652 15.359 211.652 16.0795H213.252C213.252 15.6865 213.361 15.3551 213.576 15.0586L212.282 14.1175ZM213.956 12.8234C213.274 13.1209 212.705 13.5459 212.286 14.1121L213.572 15.0641C213.801 14.7552 214.131 14.4928 214.595 14.2902L213.956 12.8234ZM216.304 12.3818C215.446 12.3818 214.658 12.5206 213.959 12.8222L214.593 14.2914C215.052 14.0931 215.617 13.9818 216.304 13.9818V12.3818ZM219.419 13.2289C218.536 12.6492 217.483 12.3818 216.304 12.3818V13.9818C217.239 13.9818 217.97 14.1917 218.542 14.5666L219.419 13.2289ZM233.45 28.2H231.234V29.8H233.45V28.2ZM234.451 23.7892L232.696 28.7324L234.204 29.2676L235.959 24.3245L234.451 23.7892ZM242.263 23.2568H235.205V24.8568H242.263V23.2568ZM244.772 28.7324L243.017 23.7892L241.509 24.3244L243.264 29.2676L244.772 28.7324ZM246.234 28.2H244.018V29.8H246.234V28.2ZM239.074 11.8212L245.483 29.2758L246.985 28.7243L240.576 11.2697L239.074 11.8212ZM237.643 12.3455H239.825V10.7455H237.643V12.3455ZM231.985 29.2758L238.394 11.8212L236.892 11.2697L230.483 28.7243L231.985 29.2758ZM242.352 21.9142L239.556 14.0392L238.048 14.5744L240.844 22.4494L242.352 21.9142ZM238.802 13.5068H238.666V15.1068H238.802V13.5068ZM237.912 14.0392L235.116 21.9142L236.624 22.4494L239.42 14.5744L237.912 14.0392ZM235.87 22.9818H241.598V21.3818H235.87V22.9818ZM248.953 12.3455H254.85V10.7455H248.953V12.3455ZM249.753 29V11.5455H248.153V29H249.753ZM251.066 28.2H248.953V29.8H251.066V28.2ZM250.266 22.625V29H251.866V22.625H250.266ZM254.885 21.825H251.066V23.425H254.885V21.825ZM257.83 21.1881C257.117 21.5937 256.151 21.825 254.885 21.825V23.425C256.334 23.425 257.596 23.162 258.621 22.579L257.83 21.1881ZM259.434 19.5183C259.094 20.2069 258.568 20.7634 257.827 21.19L258.624 22.577C259.621 22.0037 260.379 21.2193 260.869 20.2261L259.434 19.5183ZM259.982 17.0682C259.982 17.9842 259.796 18.7947 259.436 19.5144L260.867 20.2299C261.348 19.2678 261.582 18.2089 261.582 17.0682H259.982ZM259.437 14.6324C259.796 15.3453 259.982 16.152 259.982 17.0682H261.582C261.582 15.9275 261.348 14.8706 260.866 13.913L259.437 14.6324ZM257.818 12.9854C258.564 13.402 259.094 13.9504 259.437 14.6325L260.866 13.913C260.369 12.9246 259.603 12.1492 258.598 11.5885L257.818 12.9854ZM254.85 12.3455C256.13 12.3455 257.101 12.5773 257.813 12.9824L258.604 11.5915C257.578 11.0079 256.309 10.7455 254.85 10.7455V12.3455ZM251.066 21.55H254.816V19.95H251.066V21.55ZM254.816 21.55C255.836 21.55 256.741 21.3754 257.471 20.9592L256.679 19.5692C256.272 19.8008 255.672 19.95 254.816 19.95V21.55ZM257.471 20.9592C258.172 20.5597 258.705 20.002 259.036 19.2884L257.585 18.615C257.405 19.0037 257.114 19.321 256.679 19.5692L257.471 20.9592ZM259.035 19.2916C259.353 18.6148 259.503 17.8685 259.503 17.0682H257.903C257.903 17.6656 257.792 18.175 257.587 18.6118L259.035 19.2916ZM259.503 17.0682C259.503 16.268 259.353 15.5233 259.034 14.8504L257.588 15.536C257.791 15.9654 257.903 16.4706 257.903 17.0682H259.503ZM259.036 14.8565C258.703 14.1378 258.161 13.5831 257.449 13.1952L256.684 14.6003C257.119 14.8373 257.407 15.1463 257.585 15.5299L259.036 14.8565ZM257.454 13.1981C256.72 12.7912 255.81 12.6205 254.782 12.6205V14.2205C255.652 14.2205 256.265 14.3679 256.678 14.5974L257.454 13.1981ZM254.782 12.6205H251.066V14.2205H254.782V12.6205ZM250.266 13.4205V20.75H251.866V13.4205H250.266ZM264.187 12.3455H270.085V10.7455H264.187V12.3455ZM264.987 29V11.5455H263.387V29H264.987ZM266.301 28.2H264.187V29.8H266.301V28.2ZM265.501 22.625V29H267.101V22.625H265.501ZM270.119 21.825H266.301V23.425H270.119V21.825ZM273.064 21.1881C272.351 21.5937 271.386 21.825 270.119 21.825V23.425C271.568 23.425 272.83 23.162 273.855 22.579L273.064 21.1881ZM274.669 19.5183C274.329 20.2069 273.803 20.7634 273.061 21.19L273.859 22.577C274.856 22.0037 275.614 21.2193 276.103 20.2261L274.669 19.5183ZM275.217 17.0682C275.217 17.9842 275.03 18.7947 274.67 19.5144L276.102 20.2299C276.583 19.2678 276.817 18.2089 276.817 17.0682H275.217ZM274.671 14.6324C275.03 15.3453 275.217 16.152 275.217 17.0682H276.817C276.817 15.9275 276.583 14.8706 276.101 13.913L274.671 14.6324ZM273.053 12.9854C273.799 13.402 274.328 13.9504 274.671 14.6325L276.101 13.913C275.603 12.9246 274.837 12.1492 273.833 11.5885L273.053 12.9854ZM270.085 12.3455C271.364 12.3455 272.335 12.5773 273.047 12.9824L273.838 11.5915C272.812 11.0079 271.544 10.7455 270.085 10.7455V12.3455ZM266.301 21.55H270.051V19.95H266.301V21.55ZM270.051 21.55C271.071 21.55 271.975 21.3754 272.705 20.9592L271.913 19.5692C271.507 19.8008 270.906 19.95 270.051 19.95V21.55ZM272.705 20.9592C273.406 20.5597 273.94 20.002 274.271 19.2884L272.819 18.615C272.639 19.0037 272.349 19.321 271.913 19.5692L272.705 20.9592ZM274.269 19.2916C274.587 18.6148 274.737 17.8685 274.737 17.0682H273.137C273.137 17.6656 273.026 18.175 272.821 18.6118L274.269 19.2916ZM274.737 17.0682C274.737 16.268 274.587 15.5233 274.268 14.8504L272.822 15.536C273.026 15.9654 273.137 16.4706 273.137 17.0682H274.737ZM274.271 14.8565C273.937 14.1378 273.396 13.5831 272.683 13.1952L271.918 14.6003C272.353 14.8373 272.641 15.1463 272.819 15.5299L274.271 14.8565ZM272.689 13.1981C271.955 12.7912 271.045 12.6205 270.017 12.6205V14.2205C270.886 14.2205 271.499 14.3679 271.913 14.5974L272.689 13.1981ZM270.017 12.6205H266.301V14.2205H270.017V12.6205ZM265.501 13.4205V20.75H267.101V13.4205H265.501Z" fill="#2980B9" mask="url(#path-1-outside-1_113_14)"/>
</svg>
